<svg width="110" height="100" viewBox="0 0 110 100" fill="none" xmlns="http://www.w3.org/2000/svg">
<path d="M109.812 0.298828H0.188129V66.7608H109.812V0.298828Z" fill="#0075BD"/>
<path d="M54.9892 4.59912C27.6211 4.59912 5.44125 17.5432 5.44125 33.519C5.44125 49.4948 27.6211 62.4389 54.9892 62.4389C82.3573 62.4389 104.559 49.4948 104.559 33.519C104.559 17.5647 82.3573 4.59912 54.9892 4.59912ZM57.8427 27.4555H77.0609C77.6014 29.3907 77.8824 31.4333 77.8824 33.5405C77.8824 46.119 67.6356 56.3109 54.9892 56.3109C46.5799 56.3109 39.2298 51.7955 35.2522 45.0655H52.5896C54.1893 45.0655 55.508 43.7753 55.508 42.1627C55.508 40.5716 54.2109 39.26 52.5896 39.26H32.8526C32.377 37.4323 32.1176 35.5187 32.1176 33.5405C32.1176 20.962 42.3644 10.7701 55.0108 10.7701C63.2688 10.7701 70.5107 15.135 74.5533 21.65H57.8643C56.2646 21.65 54.9459 22.9401 54.9459 24.5528C54.9243 26.1439 56.243 27.4555 57.8427 27.4555ZM75.6558 13.2643C82.5735 15.221 88.3886 18.1237 92.4312 21.65H81.4493C80.0226 18.5108 78.0337 15.694 75.6558 13.2643ZM12.6616 39.2815C11.7536 37.4323 11.278 35.5187 11.278 33.519C11.278 24.7463 20.6169 17.1347 34.3442 13.2643C29.1776 18.4678 25.9781 25.6279 25.9781 33.519C25.9781 35.4757 26.1727 37.3893 26.5402 39.2385H12.8778C12.8345 39.26 12.7481 39.2815 12.6616 39.2815ZM28.3993 45.0655C29.8261 48.3337 31.8582 51.301 34.3442 53.7952C27.2103 51.774 21.2438 48.7423 17.1797 45.0655H28.3993ZM75.6558 53.7952C80.8224 48.5917 84.0218 41.4317 84.0218 33.5405C84.0218 31.4548 83.8057 29.4122 83.3733 27.4555H97.1655C98.1815 29.3907 98.7219 31.4333 98.7219 33.5405C98.7219 42.2917 89.383 49.9248 75.6558 53.7952Z" fill="white"/>
<path d="M1.57167 97.3577H3.99286V96.1106H1.57167V95.1861H4.12257V93.939H0.231365V99.6154H4.27389V98.3683H1.57167V97.3577Z" fill="#0075BD"/>
<path d="M9.93775 97.4868L8.68393 93.982V93.939H6.71671V99.6154H8.05701V95.6161L9.39731 99.6154H10.4133L11.7969 95.5946V99.6154H13.1372V93.939H11.1916L9.93775 97.4868Z" fill="#0075BD"/>
<path d="M18.52 93.8101C16.6825 93.8101 15.4503 95.0142 15.4503 96.7773C15.4503 98.5619 16.6825 99.7445 18.52 99.7445C20.3575 99.7445 21.5897 98.5404 21.5897 96.7773C21.5897 94.9927 20.3359 93.8101 18.52 93.8101ZM20.1846 96.7773C20.1846 97.7879 19.4928 98.5189 18.4984 98.5189C17.504 98.5189 16.8122 97.8094 16.8122 96.7773C16.8122 95.7452 17.504 95.0357 18.4984 95.0357C19.4928 95.0572 20.1846 95.7667 20.1846 96.7773Z" fill="#0075BD"/>
<path d="M23.3624 95.1431H24.9621V99.6154H26.3024V95.1431H27.9021V93.939H23.3624V95.1431Z" fill="#0075BD"/>
<path d="M31.2961 93.939H29.9558V99.6154H31.2961V93.939Z" fill="#0075BD"/>
<path d="M36.6573 93.8101C34.8198 93.8101 33.5876 95.0142 33.5876 96.7773C33.5876 98.5619 34.8198 99.7445 36.6573 99.7445C38.4948 99.7445 39.727 98.5404 39.727 96.7773C39.727 94.9927 38.4948 93.8101 36.6573 93.8101ZM38.3435 96.7773C38.3435 97.7879 37.6517 98.5189 36.6573 98.5189C35.6629 98.5189 34.9711 97.8094 34.9711 96.7773C34.9711 95.7452 35.6629 95.0357 36.6573 95.0357C37.6517 95.0357 38.3435 95.7667 38.3435 96.7773Z" fill="#0075BD"/>
<path d="M46.0827 97.6803L43.8128 93.982L43.7912 93.939H42.0401V99.6154H43.3804V95.7881L45.7152 99.5939L45.7368 99.6154H47.4446V93.939H46.0827V97.6803Z" fill="#0075BD"/>
<path d="M51.8978 93.939L49.4766 99.5294L49.4334 99.6154H50.925L51.4006 98.4328H53.4975L53.9731 99.6154H55.4864L52.9787 93.939H51.8978ZM53.0003 97.2932H51.8114L52.4167 95.7881L53.0003 97.2932Z" fill="#0075BD"/>
<path d="M58.8371 93.939H57.4968V99.6154H61.1286V98.3683H58.8371V93.939Z" fill="#0075BD"/>
<path d="M69.1056 95.0572C69.3866 95.0572 69.7541 95.1647 69.9487 95.4012L69.9919 95.4442L70.9215 94.4336L70.8782 94.3906C70.4242 94.0036 69.8406 93.7886 69.1272 93.7886C68.0679 93.7886 66.9438 94.3691 66.9438 95.6592C66.9438 96.7558 67.8517 97.0568 68.5867 97.2719C69.1056 97.4439 69.5595 97.5729 69.5595 97.9814C69.5595 98.3254 69.1704 98.4975 68.7597 98.4975C68.3706 98.4975 67.9598 98.304 67.722 98.0029L67.6788 97.9384L66.7276 98.992L66.7708 99.035C67.2897 99.5081 67.9166 99.7446 68.6948 99.7446C70.0351 99.7446 70.8998 99.0135 70.8998 97.8524C70.8998 96.6698 69.9919 96.4118 69.2569 96.1968C68.7381 96.0463 68.3273 95.9173 68.3273 95.5517C68.3273 95.1862 68.8029 95.0572 69.1056 95.0572Z" fill="#0075BD"/>
<path d="M76.996 97.9384C76.7582 98.3039 76.3475 98.519 75.8935 98.519C75.0288 98.519 74.3803 97.7664 74.3803 96.7773C74.3803 95.7667 75.0288 95.0357 75.9368 95.0357C76.3691 95.0357 76.715 95.1862 76.9528 95.4657L76.996 95.5087L78.0337 94.6701L77.9905 94.6271C77.3852 93.8531 76.3691 93.7886 76.0665 93.7886C74.229 93.7886 72.9967 94.9927 72.9967 96.7558C72.9967 98.5405 74.229 99.7231 76.0665 99.7231C76.9312 99.7231 77.6878 99.3575 78.1418 98.734L78.1634 98.691L77.0393 97.8524L76.996 97.9384Z" fill="#0075BD"/>
<path d="M81.579 93.939H80.2387V99.6154H81.579V93.939Z" fill="#0075BD"/>
<path d="M85.5567 97.3577H87.9779V96.1106H85.5567V95.1861H88.1292V93.939H84.2164V99.6154H88.2589V98.3683H85.5567V97.3577Z" fill="#0075BD"/>
<path d="M94.7875 97.6803L92.496 93.982L92.4744 93.939H90.7234V99.6154H92.0637V95.7881L94.3984 99.5939L94.42 99.6154H96.1278V93.939H94.7875V97.6803Z" fill="#0075BD"/>
<path d="M102.44 97.9384C102.202 98.3039 101.792 98.519 101.338 98.519C100.473 98.519 99.8244 97.7664 99.8244 96.7773C99.8244 95.7667 100.473 95.0357 101.381 95.0357C101.813 95.0357 102.159 95.1862 102.397 95.4657L102.44 95.5087L103.478 94.6701L103.435 94.6271C102.829 93.8531 101.813 93.7886 101.511 93.7886C99.6731 93.7886 98.4409 94.9927 98.4409 96.7558C98.4409 98.5405 99.6731 99.7231 101.511 99.7231C102.375 99.7231 103.132 99.3575 103.586 98.734L103.608 98.691L102.483 97.8524L102.44 97.9384Z" fill="#0075BD"/>
<path d="M107.088 98.3683V97.3577H109.509V96.1106H107.088V95.1861H109.66V93.939H105.748V99.6154H109.79V98.3683H107.088Z" fill="#0075BD"/>
<path d="M105.229 69.9862C105.229 68.7176 106.245 67.6855 107.52 67.6855C108.817 67.6855 109.812 68.7176 109.812 69.9647V69.9862C109.812 71.2333 108.796 72.2869 107.52 72.2869C106.223 72.2654 105.229 71.2333 105.229 69.9862ZM109.552 69.9647C109.552 68.8251 108.688 67.9221 107.52 67.9221C106.375 67.9221 105.488 68.8466 105.488 69.9647V69.9862C105.488 71.1043 106.353 72.0289 107.52 72.0289C108.666 72.0074 109.552 71.0828 109.552 69.9647ZM106.569 68.7391H107.693C108.255 68.7391 108.666 68.9972 108.666 69.5347C108.666 69.9217 108.45 70.1582 108.147 70.2658L108.753 71.1258H108.061L107.542 70.3733H107.174V71.1258H106.591V68.7391H106.569ZM107.65 69.8787C107.909 69.8787 108.061 69.7497 108.061 69.5562C108.061 69.3412 107.909 69.2337 107.65 69.2337H107.153V69.9002H107.65V69.8787Z" fill="#0075BD"/>
<path d="M106.115 82.5L106.245 82.457C108.342 81.683 109.488 80.0273 109.488 77.8126V77.7696C109.488 76.372 109.034 75.1894 108.191 74.3294C107.196 73.3403 105.661 72.8027 103.78 72.8027H96.8412V87.7465H100.019V75.6195H103.499C105.272 75.6195 106.288 76.458 106.288 77.9202V77.9632C106.288 79.3608 105.25 80.2423 103.564 80.2423H101.013L106.007 87.7465H109.79L106.115 82.5Z" fill="#0075BD"/>
<path d="M92.8635 75.5335V72.7812H81.125V87.725H92.8635V84.9942H84.519V81.5755H92.323V78.8232H84.519V75.5335H92.8635Z" fill="#0075BD"/>
<path d="M75.2883 72.7812L70.8782 83.6611L66.4682 72.7812H62.6851L69.2353 87.725H72.4131L78.9633 72.7812H75.2883Z" fill="#0075BD"/>
<path d="M60.4368 75.5335V72.7812H48.72V87.725H60.4368V84.9942H52.114V81.5755H59.918V78.8232H52.114V75.5335H60.4368Z" fill="#0075BD"/>
<path d="M44.3316 75.5335V72.7812H32.6148V87.725H44.31V84.9942H36.0088V81.5755H43.8128V78.8232H36.0088V75.5335H44.3316Z" fill="#0075BD"/>
<path d="M17.9363 72.7812V87.725H29.6315V84.9297H21.3735V72.7812H17.9363Z" fill="#0075BD"/>
<path d="M14.3045 83.5105V83.4675C14.3045 80.7368 11.8401 79.7047 8.16509 78.9951C4.16581 78.2426 3.73345 77.6835 3.73345 76.6944C3.73345 75.7268 4.90081 75.0818 6.7167 75.0818C8.35965 75.0818 10.0026 75.5548 11.7104 76.5654L11.8617 76.6514L13.0723 73.8777C11.2132 72.8456 9.15951 72.3511 6.78155 72.3511C2.97683 72.3511 0.209755 74.2862 0.209755 76.9739C0.209755 79.7692 2.54448 80.7583 6.60862 81.5323C10.4998 82.2419 10.8025 82.8869 10.8025 83.7685C10.8025 85.2521 8.61907 85.4241 7.66788 85.4241C5.54934 85.4241 3.75507 84.8436 1.83109 83.5535L1.70138 83.4675L0.469168 86.2842C2.58771 87.5313 4.98728 88.1764 7.45171 88.1764C11.5591 88.1764 14.3045 86.3057 14.3045 83.5105Z" fill="#0075BD"/>
</svg>
